/* XPM */
static char *ca8d1dd426ee41098344254ae816707e7IBiBsI8UEE66IWz[] = {
/* columns rows colors chars-per-pixel */
"32 32 114 2 ",
"   c None",
".  c #B76F4F",
"X  c #B86F4F",
"o  c #B86F50",
"O  c #B97050",
"+  c #B97150",
"@  c #B97051",
"#  c #B97151",
"$  c #BA7151",
"%  c #BA7252",
"&  c #BB7252",
"*  c #BB7352",
"=  c #BC7352",
"-  c #BC7452",
";  c #BC7553",
":  c #BD7553",
">  c #BD7554",
",  c #BE7554",
"<  c #BD7654",
"1  c #BE7654",
"2  c #BE7754",
"3  c #BF7754",
"4  c #BF7655",
"5  c #BF7755",
"6  c #C07856",
"7  c #C07956",
"8  c #C27A57",
"9  c #C27B58",
"0  c #C27C58",
"q  c #C37C58",
"w  c #C37D59",
"e  c #C47D58",
"r  c #C47E59",
"t  c #C57F59",
"y  c #C47F5A",
"u  c #C7805A",
"i  c #C7815B",
"p  c #C6815C",
"a  c #C8835C",
"s  c #C9835C",
"d  c #CA845C",
"f  c #CA855D",
"g  c #CA855E",
"h  c #CC875E",
"j  c #CC875F",
"k  c #CD885F",
"l  c #CD8A61",
"z  c #CC8A62",
"x  c #CF8D63",
"c  c #CE8D64",
"v  c #D08F65",
"b  c #D19066",
"n  c #D29267",
"m  c #D49266",
"M  c #D19268",
"N  c #D3946A",
"B  c #D69568",
"V  c #D7976A",
"C  c #D9996A",
"Z  c #D8996B",
"A  c #DC9D6D",
"S  c #DC9E6E",
"D  c #DD9E6E",
"F  c #D89C71",
"G  c #D99E72",
"H  c #DA9F73",
"J  c #DCA173",
"K  c #DBA174",
"L  c #DBA377",
"P  c #DEA375",
"I  c #DDA476",
"U  c #DDA779",
"Y  c #DFA678",
"T  c #E1AC7D",
"R  c #E2AE7E",
"E  c #E4AD7C",
"W  c #E5B07F",
"Q  c #E1B083",
"!  c #E3B283",
"~  c #E6B483",
"^  c #E7B583",
"/  c #E3B386",
"(  c #E3B587",
")  c #E4B586",
"_  c #E4B587",
"`  c #E4B889",
"'  c #E5B98A",
"]  c #E9BF8F",
"[  c #E6BF91",
"{  c #E7C193",
"}  c #E7C194",
"|  c #E9C293",
" . c #E8C395",
".. c #E8C497",
"X. c #E8C597",
"o. c #E7C598",
"O. c #E9C799",
"+. c #E8C79B",
"@. c #EAC899",
"#. c #E9CDA1",
"$. c #EACCA0",
"%. c #EACDA1",
"&. c #EACEA1",
"*. c #EACEA3",
"=. c #EACFA3",
"-. c #EAD0A5",
";. c #EAD2A8",
":. c #EAD3A8",
">. c #EAD4AA",
",. c #EAD5AA",
"<. c #EAD4AB",
"1. c #EAD5AB",
"2. c #EAD5AC",
"3. c #EAD6AC",
/* pixels */
"                                                                ",
"                                                                ",
"                                                                ",
"                                                                ",
"                                                                ",
"                                                                ",
"                                                                ",
"                                                                ",
"                          * ; 6 6 ; *                           ",
"                        * 7 y f d y 7 *                         ",
"                      o > a m C C m a > o                       ",
"                    * ; y M P E E P M q ; *                     ",
"                  X ; y c L _ ] ] _ L v y ; X                   ",
"                . * q x J ( O.$.$.O.( J x 9 * .                 ",
"              * * 9 l G Q  .-.3.2.$. .Q G l 7 ; *               ",
"              * q l F Q  .$.-.3.2.;.$.| Q G l q *               ",
"              > s C U { $.;.3.3.2.3.-.$.[ R V a ;               ",
"              > k D _ @.;.2.;.;.3.3.2.-.O.~ D f 6               ",
"              6 f D ~ @.;.2.;.3.3.3.2.3.O.^ D f 6               ",
"              = d C R { $.3.3.;.;.;.3.$. .R C d =               ",
"              * y x G /  .$.3.3.3.-.-. .( G x e =               ",
"              * ; y x J ( o.-.3.3.-. .( L c y ; *               ",
"                . * y v Y ` +.$.$.@.` I b y = o                 ",
"                  * > u M Y ' ]  .' U M u ; X                   ",
"                    * > p N T E E Y N p ; *                     ",
"                      o 2 d V D D V d > o                       ",
"                        * 7 a f l a 7 *                         ",
"                        * * 6 6 6 6 = *                         ",
"                                                                ",
"                                                                ",
"                                                                ",
"                                                                "
};
