/* XPM */
static char *_dd194eaf8ad4e08d5a76225eef03800UYTtU5PRofwGZSvf[] = {
/* columns rows colors chars-per-pixel */
"32 32 172 2 ",
"   c None",
".  c #000F26",
"X  c #021227",
"o  c #0F1D29",
"O  c #101E29",
"+  c #17252B",
"@  c #565934",
"#  c #7E7B3A",
"$  c #646536",
"%  c #0B294E",
"&  c #0B2D52",
"*  c #102F51",
"=  c #0E3256",
"-  c #0E3559",
";  c #0F3B5F",
":  c #143354",
">  c #18375A",
",  c #153757",
"<  c #103F63",
"1  c #2D4751",
"2  c #114367",
"3  c #134E72",
"4  c #165275",
"5  c #284566",
"6  c #266074",
"7  c #396B79",
"8  c #405551",
"9  c #5E6C51",
"0  c #6B7E5B",
"q  c #727D52",
"w  c #587766",
"e  c #607F65",
"r  c #7A8959",
"t  c #8C873C",
"y  c #98923E",
"u  c #868C50",
"i  c #899154",
"p  c #879056",
"a  c #959750",
"s  c #A59D40",
"d  c #ACA648",
"f  c #B4AC49",
"g  c #BEB64E",
"h  c #BEB54A",
"j  c #A0A151",
"k  c #C8BB46",
"l  c #C9BE4D",
"z  c #C5BA4A",
"x  c #CAC04F",
"c  c #D1C64F",
"v  c #E9D64C",
"b  c #EFDB4B",
"n  c #F3DF4C",
"m  c #F5E14D",
"M  c #FBE64D",
"N  c #FFED4E",
"B  c #1A688B",
"V  c #1B6898",
"C  c #1C7A9D",
"Z  c #1F709F",
"A  c #2A628B",
"S  c #29668A",
"D  c #396488",
"F  c #246D94",
"G  c #2B6E9C",
"H  c #266A98",
"J  c #336D96",
"K  c #3A6E95",
"L  c #2D729F",
"P  c #27789A",
"I  c #3B7095",
"U  c #166EA4",
"Y  c #1575AE",
"T  c #1E76AA",
"R  c #1E7CB3",
"E  c #177DB9",
"W  c #1675B1",
"Q  c #2573A4",
"!  c #2378AC",
"~  c #4C6681",
"^  c #436D8E",
"/  c #476887",
"(  c #5A6F87",
")  c #5C738B",
"_  c #416F93",
"`  c #4B7698",
"'  c #4C7494",
"]  c #557997",
"[  c #547A99",
"{  c #5E7E99",
"}  c #587793",
"|  c #66798F",
" . c #647A92",
".. c #6A7E94",
"X. c #607F9A",
"o. c #1F88AB",
"O. c #1C81BC",
"+. c #1E8DB3",
"@. c #2084A7",
"#. c #2297BA",
"$. c #6E8195",
"%. c #66819B",
"&. c #6B849C",
"*. c #718397",
"=. c #74869A",
"-. c #798B9E",
";. c #76889C",
":. c #748CA2",
">. c #7D8EA1",
",. c #7E90A4",
"<. c #7F95AA",
"1. c #1A86C4",
"2. c #1B8CCB",
"3. c #1989C7",
"4. c #1B8FD0",
"5. c #1C93D4",
"6. c #1D9ADC",
"7. c #1B97DA",
"8. c #1EA0DB",
"9. c #25A7C9",
"0. c #26AED0",
"q. c #27B3D6",
"w. c #29BBDF",
"e. c #1E9EE2",
"r. c #1EA1E6",
"t. c #1FA3E9",
"y. c #20A2E6",
"u. c #21A5EB",
"i. c #22AAED",
"p. c #29BEE3",
"a. c #24B1EF",
"s. c #25B4F0",
"d. c #27BCF4",
"f. c #2AC5EA",
"g. c #29C1E7",
"h. c #29C4F7",
"j. c #2CCEF6",
"k. c #29C6F8",
"l. c #2BCCF9",
"z. c #2CD0FA",
"x. c #8393A6",
"c. c #8396A9",
"v. c #8799AA",
"b. c #8C9CAD",
"n. c #909FAE",
"m. c #94A2B2",
"M. c #98A6B5",
"N. c #9CABBA",
"B. c #9DA9B7",
"V. c #A1ADBB",
"C. c #A4B1BE",
"Z. c #A8B2BE",
"A. c #A4B3C1",
"S. c #AAB5C2",
"D. c #AEBAC6",
"F. c #B1BBC6",
"G. c #B6BFC9",
"H. c #BBC3CC",
"J. c #C3CAD3",
"K. c #C9CFD6",
"L. c #CBD1D9",
"P. c #D4D9DF",
"I. c #D0D5DC",
"U. c #D9DEE3",
"Y. c #DEE2E7",
"T. c #E4E7EA",
"R. c #E7EAED",
"E. c #ECECEF",
"W. c #EEEFF1",
"Q. c #F3F4F5",
"!. c #FEFEFE",
"~. c #F6F7F8",
/* pixels */
"                                                                ",
"                                                                ",
"                                                                ",
"                                                                ",
"                                                                ",
"      =.=.>.C.          Z.c.&.X.{ %.:.m.            v.=.*.b.    ",
"    >.V.T.G.>.=.    c.' G R 1.2.2.2.O.Q I &.S.  v.*.B.P.U.$.    ",
"    M.x.!.!.~.H.| ^ ! 5.u.u.u.u.u.u.i.u.e.1.J ) n.R.!.!.H.;.    ",
"      -.V.!.!.!.b.W t.t.u.u.u.u.u.u.u.u.u.u.7._ Q.!.!.U.$.      ",
"        *.Z.!.~.%.4.t.i.u.y.u.u.y.u.u.u.u.u.u.G K.!.U.$.N.      ",
"          ..>.&.T t.i.u.u.u.u.u.u.u.u.y.u.u.u.2._ b.) C.        ",
"      b.,./ Y 3.t.a.h.s.u.u.u.u.u.u.u.u.i.d.d.u.5.O.A &.x.A.    ",
"    -.m.H.{ 2.i.s.j.0.f.l.d.s.s.i.a.d.h.j.q.p.h.u.u.G Z.F.*.    ",
"    *.J.!.c.3.i.j.C = 4 @.0.p.g.f.g.0.#.B ; 3 p.d.r.J E.Q.-.V.  ",
"    D.$.>.K 7.d.q.- , m.x.: ; < 2 2 , 5 S.| % C l.u.T =.$.b.    ",
"      D.A 5.u.d.9.& > S.b.& & : : & % 5 H...% B j.i.e.U &.      ",
"        L i.u.a.f.3 & - , 1 i g x d 9 : > : = #.h.u.u.2.%.      ",
"      F.A 7.u.u.h.q.4 & 1 c N N N N M a : ; o.j.a.u.y.Y &.      ",
"      &...J e.u.t.k.g.6 x N v y # h N M q +.l.s.u.u.R }  .m.    ",
"    =.G.!.,.3.u.t.t.7.r N m @ X . + d N l P i.u.u.r.J R.R.=.    ",
"    =.Z.I.%.3.i.t.t.3.p N z o X X . @ M v 7 t.t.u.r.J H.K.*.C.  ",
"      ,.=.D E 5.i.i.3.p N z O X X . @ M v 7 t.t.6.1.V | -.N.    ",
"          .. .] R u.7.w M m $ X . + f N z F t.5.J :.~ D.        ",
"        ;.M.~.W.] 5.y.F g N b s t k M M 0 1.t.P H.!.L.$.A.      ",
"      x.m.!.!.!.n.E i.5.7 l N N N N m i Z u.e._ Q.!.!.L.$.      ",
"    N.-.~.!.!.L...D O.r.4.S r f g j w T e.5.Q ~ V.Q.!.!.F.-.    ",
"    ,.Z.Q.L.v.*.A.  &.I ! O.W V V U E R L ' n.  -.;.F.T.Y.*.    ",
"    C.*.=.=.m.          b.&.{ [ ` [ %.>.V.          >.=.*.c.    ",
"                                                                ",
"                                                                ",
"                                                                ",
"                                                                "
};
