/* XPM */
static char *ac9afa355fc14aaec43665cfc5a98f90UrCAaI4FLeHYEI6f[] = {
/* columns rows colors chars-per-pixel */
"32 32 195 2 ",
"   c #36961B",
".  c #379A1B",
"X  c #3A9B1C",
"o  c #3DA41D",
"O  c #3EAB1C",
"+  c #3EB21C",
"@  c #3C9C21",
"#  c #42A41E",
"$  c #44AB1E",
"%  c #4AAD1F",
"&  c #44B51E",
"*  c #4BB41F",
"=  c #45BB1D",
"-  c #4BBB1E",
";  c #47AD25",
":  c #4AAC20",
">  c #44B422",
",  c #4DB322",
"<  c #4FBA20",
"1  c #4ABF28",
"2  c #54B421",
"3  c #58B621",
"4  c #53BC21",
"5  c #5ABE23",
"6  c #55BA2F",
"7  c #50A636",
"8  c #5AB53D",
"9  c #5BB835",
"0  c #64BC23",
"q  c #60B830",
"w  c #61B738",
"e  c #4BC21F",
"r  c #43CC1C",
"t  c #4BCC1E",
"y  c #46C21E",
"u  c #47D01C",
"i  c #4BD31E",
"p  c #4ADB1D",
"a  c #4EE31E",
"s  c #53E41F",
"d  c #5BE91F",
"f  c #4EC522",
"g  c #4ECD20",
"h  c #4EC328",
"j  c #52C522",
"k  c #5CC423",
"l  c #53CC22",
"z  c #5ACC22",
"x  c #59C82B",
"c  c #4FD220",
"v  c #54D322",
"b  c #5CD423",
"n  c #56DC20",
"m  c #5BDA23",
"M  c #5CC936",
"N  c #5FD133",
"B  c #62C522",
"V  c #64CC27",
"C  c #66D625",
"Z  c #64D925",
"A  c #6CDB25",
"S  c #60D02C",
"D  c #6ED025",
"F  c #7BD627",
"G  c #7CDC2A",
"H  c #70D425",
"J  c #66C631",
"K  c #6BCD34",
"L  c #69CC3A",
"P  c #6CDE30",
"I  c #77D439",
"U  c #53E522",
"Y  c #5CE322",
"T  c #5DEC23",
"R  c #5BE62C",
"E  c #5BE92B",
"W  c #57EB21",
"Q  c #62E424",
"!  c #6DE426",
"~  c #63EC24",
"^  c #6AEC25",
"/  c #6AEB2D",
"(  c #70E325",
")  c #75E42A",
"_  c #7CE629",
"`  c #74EC28",
"'  c #79ED2C",
"]  c #76F02D",
"[  c #7CF22A",
"{  c #69E537",
"}  c #6FEF34",
"|  c #6FE73E",
" . c #7BEE36",
".. c #7BE835",
"X. c #6FF131",
"o. c #7CF131",
"O. c #74F132",
"+. c #6BC44D",
"@. c #78D84A",
"#. c #74EB42",
"$. c #7BEE44",
"%. c #7AEF4A",
"&. c #7DE540",
"*. c #7CEB51",
"=. c #7FE358",
"-. c #82F32B",
";. c #86F528",
":. c #97F92A",
">. c #84EE38",
",. c #92E93F",
"<. c #83F332",
"1. c #8CF434",
"2. c #86F138",
"3. c #8BF239",
"4. c #92F435",
"5. c #99F631",
"6. c #9BF53C",
"7. c #9AF831",
"8. c #A1FA31",
"9. c #ACFA3F",
"0. c #B2FC38",
"q. c #8EEC48",
"w. c #8BF241",
"e. c #8CF14A",
"r. c #93F244",
"t. c #9BF543",
"y. c #92F24B",
"u. c #9AF24D",
"i. c #8CED5C",
"p. c #87E755",
"a. c #9CEE5D",
"s. c #9CF25A",
"d. c #99F452",
"f. c #A4F546",
"g. c #A4F54D",
"h. c #ACFA4D",
"j. c #B5FB44",
"k. c #B0F54F",
"l. c #A4F553",
"z. c #A8F756",
"x. c #AFF65C",
"c. c #AFF85A",
"v. c #B4F853",
"b. c #93CC79",
"n. c #8EEE6A",
"m. c #9CEF67",
"M. c #91E865",
"N. c #9CF465",
"B. c #9DE57C",
"V. c #A0EE6F",
"C. c #A7F266",
"Z. c #ABF365",
"A. c #B2F46D",
"S. c #ACF170",
"D. c #B4F374",
"F. c #B6F57C",
"G. c #CDFD7F",
"H. c #A8E98D",
"J. c #B3EE8C",
"K. c #BDF283",
"L. c #B7F08A",
"P. c #BFF88A",
"I. c #B6EC9D",
"U. c #BDEE9E",
"Y. c #B8F690",
"T. c #BEECAB",
"R. c #C3F28C",
"E. c #CBF78F",
"W. c #CAF89D",
"Q. c #C4EEAE",
"!. c #CEF0A6",
"~. c #CEF1AA",
"^. c #D8F1AF",
"/. c #CCEEB7",
"(. c #D6F1BD",
"). c #D3F1B5",
"_. c #D8EECC",
"`. c #DBF1C4",
"'. c #DCF1C9",
"]. c #DFFAC8",
"[. c #DAEED2",
"{. c #DFF0D8",
"}. c #DDF1D2",
"|. c #E3F2CF",
" X c #E1EED7",
".X c #E4F1DB",
"XX c #E8F1DE",
"oX c #E4F2D3",
"OX c #E6EFE3",
"+X c #EDEFED",
"@X c #E7F0E4",
"#X c #EBF1E4",
"$X c #EEF1EB",
"%X c #F0F2EE",
"&X c #F3F3F3",
/* pixels */
"&X&X&X&X&X&X&X&X&X&X&X&X[.M.O.[  .i.Q.%X&X&X&X&X&X&X&X&X&X&X&X&X",
"&X&X&X&X&X&X&X&X&X&X&XOXm.1.A.r.O.O.1.~.&X&X&X&X&X&X&X&X&X&X&X&X",
"&X&X&X&X&X&X&X&X&X&X&XI.2.1.F.N.X.X.w.g.'.&X&X&X&X&X&X&X&X&X&X&X",
"&X&X&X&X%X&X&X&X&X&XOX*.E ^ ] w.o.T O.7.r./.&X&X&X&X&X&X&X&X&X&X",
"&X&X&X&X&X&X&X&X&X%XH.*.E ~ ` m m g Q t.1.s.#X&X&X&X&X&X&X&X&X&X",
"&X&X&X&X&X&X&X&X&XT.%.n.U s - X 4 X + p.6.2.).&X&X&X%X&X&X&X&X%X",
"&X&X&X&X&X&X&X&X$Xi.T U n i $ 0 F k X < 4.t.D.&X&X&X&X&X&X&X&X&X",
"&X&X&X&X&X&X&X&X_.$.W R m u 3 H ! Q g O G :.g.@X&X&X&X&X&X&X&X&X",
"&X&X&X&X&X&X&X&XU.w.T T s & $ b Q ~ ~ t k ;.4.`.&X&X&X&X&X&X&X&X",
"&X&X&X&X&X&X&X$XD.1.^ ~ p 5 * $ j ^ C A 2 ^ 4.!.&X&X&X&X&X&X&X&X",
"&X&X&X&X&X&X&X#XC.] ~ d s 2 X X % H z ( B n ;.R.&X&X&X&X&X&X&X&X",
"&X&X&X&X&X&X&X#Xu.O.=.a m % y #   X e C D v ;.F.&X&X&X&X&X&X&X&X",
"&X&X&X&X%X&X&X.X3. .M.U z < j   . . k V l u [ F.%X&X&X&X&X&X&X&X",
"&X&X&X&X&X&X&X.Xu.e.Q s f c &   # t z l e r >.A.+X&X&X&X&X&X&X&X",
"&X&X&X&X&X&X&XoXr.d.Y = = a < # O y t z - f ,.g.XX&X&X&X&X&X&X&X",
"&X&X&X&X&X&X&X'.1.8.G o + U 2 - j $ e _ 4 c -.l.XX&X&X&X&X&X&X&X",
"&X&X&X&X&X&X&X`.7.0.I . j n 3 C A z D u.m n <.f.oX&X&X&X&X&X&X&X",
"%X&X&X&X&X&X&X'.f.0.q   t p < ^ u = I N.^ Q 5.j.|.&X&X&X&X&X&X&X",
"&X&X&X&X&X&X&XoXt.j.w   r p * d c h p.{ b v 6.v.'.&X&X&X&X&X&X&X",
"&X&X&X&X&X&X&X X6.E.b.X r p % ( Q } ..r 4 b 3.f.'.&X&X&X&X&X&X&X",
"&X&X&X&X&X&X&X#Xg.9.L X O i = F ;.' = $ % ) z.x.XX&X&X&X&X&X&X&X",
"&X&X&X&X&X&X&X&XC.8.L 7 & l l * S.m.f < - 2.x.Z.%X&X&X&X&X&X&X&X",
"&X%X&X&X&X&X&X&XD.7.Z @ > b ' f M #.Q v y / 4.R.&X&X%X&X&X&X&X&X",
"&X&X&X&X&X&X&X&XL.h.) o & Q [ ) l l b $ - b 3.(.&X&X&X&X&X&X&X&X",
"&X&X&X&X&X%X&X&XQ.l.6.j ; N ^ Z 5 k k = > @.q. X&X&X&X&X&X&X&X&X",
"&X&X&X&X&X&X&X&X}.$.1.q.6 * v l > h f & : P B.&X&X&X&X&X&X&X&X&X",
"&X&X&X&X&X&X&X&X&XT.e.1.a.9 ; h > x l > V q. X&X&X&X&X&X&X&X&X&X",
"&X&X&X&X&X&X&X&X&X$Xi.-.<.| +.8 8 h # 9 >.J.&X&X&X&X&X&X&X&X&X&X",
"&X&X&X&X&X&X&X&X&X&XI.~ T E p.S > x J ) t._.&X&X&X&X&X&X&X&X&X&X",
"&X&X&X&X&X&X&X&X&X&XXXa.~ E E %.#.Y.].P.R.&X&X&X&X&X&X&X&X&X&X&X",
"&X&X&X&X&X&X&X&X&X&X&XXXK.o.T T <.s.!.E.|.&X&X&X&X&X&X&X&X&X&X&X",
"&X&X&X&X&X&X&X&X&X&X&X&X%X~.f.5.9.f.h.^.&X&X&X&X&X&X%X&X&X&X&X&X"
};
