/* XPM */
static char *_5b7686287064192ad4083b2e0d3beeb96eLkT5fkRLquAed[] = {
/* columns rows colors chars-per-pixel */
"35 32 147 2 ",
"   c None",
".  c #6E3A21",
"X  c #7B442A",
"o  c #7F513A",
"O  c #8D4726",
"+  c #8A4929",
"@  c #964A25",
"#  c #9A4B26",
"$  c #994D29",
"%  c #955725",
"&  c #9C5B25",
"*  c #8D4F30",
"=  c #A75128",
"-  c #BE5C2E",
";  c #AF6C2A",
":  c #B06C2A",
">  c #C35F30",
",  c #E95937",
"<  c #E95B3A",
"1  c #C46C2D",
"2  c #D57733",
"3  c #845843",
"4  c #8F6047",
"5  c #8D624E",
"6  c #906247",
"7  c #8F6651",
"8  c #906753",
"9  c #926955",
"0  c #956D5A",
"q  c #97705D",
"w  c #98725F",
"e  c #B06540",
"r  c #B86943",
"t  c #9A7462",
"y  c #9D7866",
"u  c #9F7B69",
"i  c #A17D6C",
"p  c #EA6444",
"a  c #EA6748",
"s  c #EB6A4C",
"d  c #EC6F51",
"f  c #EC7155",
"g  c #EC7559",
"h  c #ED795E",
"j  c #EE7D64",
"k  c #D08530",
"l  c #F18A3D",
"z  c #E29436",
"x  c #A2806F",
"c  c #A48373",
"v  c #AB8C7D",
"b  c #FFAE41",
"n  c #FFB041",
"m  c #EE8066",
"M  c #EE846B",
"N  c #EF8A72",
"B  c #F08D76",
"V  c #F08F78",
"C  c #F0937C",
"Z  c #AC8F82",
"A  c #AE9284",
"S  c #B09486",
"D  c #B29688",
"F  c #B59B8E",
"G  c #B89E91",
"H  c #BAA296",
"J  c #BDA59A",
"K  c #BFA89C",
"L  c #F19782",
"P  c #F29B86",
"I  c #F29D8A",
"U  c #C0AA9F",
"Y  c #F2A08D",
"T  c #F3A491",
"R  c #F3A997",
"E  c #F4AE9D",
"W  c #C3AEA4",
"Q  c #C5B1A7",
"!  c #C6B3AA",
"~  c #C8B6AD",
"^  c #CCBCB4",
"/  c #D0BEB6",
"(  c #F5B2A2",
")  c #F5B7A8",
"_  c #F6BBAD",
"`  c #F6BEB1",
"'  c #CFC2BB",
"]  c #D3C4BD",
"[  c #F7C0B3",
"{  c #F7C6BA",
"}  c #D6C9C3",
"|  c #D8CCC6",
" . c #DCCFC9",
".. c #DDD2CD",
"X. c #DED5D1",
"o. c #F9CDC3",
"O. c #F9D0C7",
"+. c #FAD6CD",
"@. c #E3DAD6",
"#. c #E4DDD9",
"$. c #E9DFD9",
"%. c #FBDAD3",
"&. c #FBDFD9",
"*. c #EAE3DF",
"=. c #FCE3DD",
"-. c #ECE7E4",
";. c #EEE8E6",
":. c #EFEBE9",
">. c #FCE6E1",
",. c #F4EBE6",
"<. c #FDE9E5",
"1. c #F1ECEA",
"2. c #FDECE9",
"3. c #FFEFEB",
"4. c #FDEEEB",
"5. c #FEEFEC",
"6. c #FFEEEA",
"7. c #F3F0EE",
"8. c #FEF0ED",
"9. c #FEF1EE",
"0. c #FFF1EE",
"q. c #F5F3F2",
"w. c #F6F5F3",
"e. c #F4F1F0",
"r. c #FDF3F0",
"t. c #FFF5F3",
"y. c #FEF4F2",
"u. c #F9F7F7",
"i. c #FEF7F5",
"p. c #FFF3F1",
"a. c #FFF8F7",
"s. c #F9F9F8",
"d. c #FAFAF9",
"f. c #FFF9F8",
"g. c #FEFBFA",
"h. c #FFFBFA",
"j. c #FFFAF9",
"k. c #FFFCFB",
"l. c #FDFDFD",
"z. c #FFFCFC",
"x. c #FFFDFC",
"c. c #FFFDFD",
"v. c #FDFEFE",
"b. c #FFFEFE",
"n. c #FEFFFF",
"m. c white",
"M. c #FEFDFD",
/* pixels */
"                                                                      ",
"                            } ! U U ~ |                               ",
"                      ] Z q 0 q y t q 0 t S |                         ",
"                  X.v 5 v ] ;.s.m.m.w.-./ c 7 A                       ",
"                ^ 0 c $.m.y.+.` E ( [ %.j.m...y q }                   ",
"              ~ 3 W m.9.( j p < , , < a M ` i.u.F 7 ]                 ",
"            ] 5 ~ m.+.M , , , , , , , , , < V =.m.H 0 X.              ",
"            t G m.O.d , < < a m C V j p , , , j %.j.c c               ",
"          H 0 q.=.g , , p I %.i.l.m.r.+.C < < , M 9.-.7 ~             ",
"          0 ^ m.L , , a _ m.m.m.m.m.m.m.j.E p < , R m.H u             ",
"        ~ 0 q.+.a < < ) m.m.m.m.m.m.m.m.m.j.I , < f >.*.7 |           ",
"        S v m.T , , j y.m.m.j.o.I T +.m.m.m.>.d < < _ m.u J           ",
"        u Q j.M , < ( m.m.m._ p , , s o.m.m.m.P , , L m.S v           ",
"        q ] 9.g , p o.m.m.6.h , < < , N a.m.m.) < , M j.W u           ",
"        0 } 6.f , p +.m.m.>.s , < < , h 9.m.m.` < , M j.W u           ",
"        w ] 9.g , < { m.m.y.M , < < , L m.m.m.( < < M m.J c           ",
"        i J m.N , , T m.m.m.+.h p < M =.m.m.j.V , , I m.v A           ",
"        F c m.E , , f >.m.m.m.2.o.o.9.m.m.m.+.p < < { s.q !           ",
"        ] 8 ;.&.s < < P i.m.m.m.m.m.m.m.m.5.M < < h 9...0 X.          ",
"          y J m.T < < < P 2.m.m.m.m.m.m.>.N < < < _ m.v v             ",
"          ~ 7 *.5.M , , < j ) %.<.<.%.R f < < < C a. .5 }             ",
"            v u u.>.j , < , , p d d p < < < < N 6.1.0 F               ",
"            @.t v u.2.L p , , , , < < , , p T y.7.u c                 ",
"              ..q c ;.m.o.C f p < p p g I %.v.#.t i                   ",
"                @.c 7 ! e.m.6.%.o.o.%.9.m.:.J 5 A                     ",
"                    ~ t 0 S ] $.,.,.@.^ Z 9 u '                       ",
"                    ^ W c o . * r e X . 3 v ! ^                       ",
"                  c O $ $ $ @ = > > # @ $ $ @ + S                     ",
"                  4 2 l l l l l l l l l l l l 1 q                     ",
"                  6 z b b b b b b b b b b b n k w                     ",
"                  u & ; ; ; ; ; ; ; ; ; ; ; ; % v                     ",
"                  ..F Z Z Z Z Z Z Z Z Z Z Z Z H #.                    "
};
