/* XPM */
static char *_c0fcff55b0a4dac9fe07e48e94109d50S45rt62ZC8xTOfP[] = {
/* columns rows colors chars-per-pixel */
"32 32 81 1 ",
"  c #4DA0F6",
". c #53A4F6",
"X c #5CABF7",
"o c #5AADF8",
"O c #5CB0F8",
"+ c #64AEF6",
"@ c #6AAFF6",
"# c #64B1F7",
"$ c #6CB3F7",
"% c #64B4F8",
"& c #69B6F8",
"* c #67B8F9",
"= c #6CBAF9",
"- c #71B3F6",
"; c #7AB7F6",
": c #77BAF7",
"> c #7BBBF7",
", c #72BDF9",
"< c #79BEF8",
"1 c #6EC0FA",
"2 c #75C2FA",
"3 c #7BC3FA",
"4 c #7DCAFB",
"5 c #82BEF7",
"6 c #84C1F7",
"7 c #8CC2F6",
"8 c #83C5F9",
"9 c #8AC6F8",
"0 c #83CCFB",
"q c #8CCAF9",
"w c #93C5F6",
"e c #99C7F6",
"r c #95C9F7",
"t c #9CCAF6",
"y c #94CCF9",
"u c #9BCEF8",
"i c #85D2FC",
"p c #8CD4FC",
"a c #8FDAFE",
"s c #93D6FC",
"d c #9BD3FA",
"f c #94D9FD",
"g c #9BDCFD",
"h c #A4CDF6",
"j c #A9CFF6",
"k c #A4D0F7",
"l c #ADD2F6",
"z c #A4D5F9",
"x c #ACD6F8",
"c c #A4DFFE",
"v c #ABDEFC",
"b c #B4D5F6",
"n c #B9D7F6",
"m c #BCD9F6",
"M c #B0D8F8",
"N c #BBDBF8",
"B c #9FE0FE",
"V c #A3E1FE",
"C c #ABE3FE",
"Z c #B1E2FD",
"A c #C3DCF6",
"S c #C9DFF6",
"D c #C4DEF8",
"F c #CCE1F6",
"G c #C4E1FA",
"H c #CCE3F8",
"J c #C3EBFE",
"K c #D4E5F6",
"L c #D9E7F5",
"P c #DDE9F6",
"I c #D2E6F8",
"U c #DCEAF8",
"Y c #E4EDF6",
"T c #EBEFF3",
"R c #E4EEF8",
"E c #ECF1F5",
"W c #EBF2F8",
"Q c #F4F4F5",
"! c #F5F7F8",
"~ c #F7F8F9",
"^ c #FAFAFB",
/* pixels */
"^!Q^QQ^Q~~T^WE^TQ~T^^Q^!T^QQ^Q~~",
"!~~Q~~QQ!QWYPYPYYYRWW!Q!~Q~~Q~~Q",
"Q~~Q~!Q~WLImmDAIIFIFHUYW^Q~~Q~QQ",
"^QQ^QQ!YLGhrrkvMttttyzDKY^QQ^Q~~",
"Q~!Q~WLIm558q80438=@8ssNIP!!Q^QQ",
"Q!!!TKAb5X6a42sspsssd5-4lSYQQ~~~",
"^!Q!Imr$O0fii239qp3p3*X%,jAY~Q~~",
"Q~^LAt$*,Cppq*7mMd>*1fs,=:hST~QQ",
"~QQS7+,=ii%=;lNDmmlw<3VV0**rIE~~",
"~QYh$600f3$wbSKKKFAAlq0pC,,pdU~~",
"Q!P7r9fii9lAYQTQWRRFbMdpCi%p3GQQ",
"^QFy7344,hmRQQ^Q~^EWAlxsBf=%+jQ~",
"!ESe===4>jFQ!!Q~QQ~QYbjepCp+ 5T!",
"QTAe:4ai5jUQ!~Q~~Q~QESjj0fso.6KQ",
"^Ube*pVirjK^QQ^Q~^Q~^Lbhyp0OO5K!",
"QLjw-fBadhUQ~~Q~~Q~Q!Wmjza4#*5ST",
"QYjw0paiyhFQ!!Q!~Q~~!QSlk044p:bE",
"^Wl6&3i2wemQQQ^QQ^Q~!QUle20f03lE",
"QEl&.04iwwbL~~Q!~Q^QQ!Slk<0a2emU",
"!Qe5+8VpqweAWQ^!Q~Q~!Pmjyp24$lAY",
"^~b6O<f00wwjAY!Q~~Q!Pmlh8pp0#jFW",
"E~U3=2sf03wehnARTT!Pmbt9pVf0+tKT",
"^QTy:&gZ04p3::7xSFAmbh$#pV0%@hR^",
"!!!m<%3C01p<*+4qtddwqs=0B4oXeFE!",
"Q!^Tn9,p*o%p4,ccip02sfsgf#.:mRE!",
"^QQ^Yn:o*Xo,,1gBCJg2vvc8=-$5LT~^",
"Q~~Q!Yl;$$;@-@X%3Zq4Vs3&@$:MT^!Q",
"Q!~Q!QYAr:557w;$,2o.+3>7jbSEQ~Q!",
"^QQ^Q!^EK9XX$@@$29te;;nmAPQQ^Q!^",
"Q~^Q^!T^EYA5w75>5hnmmDSKYQ~~Q^QQ",
"~QQ~QQ~Q~~QQWYUKFFSKUPTQQ~Q~~Q!!",
"^QQ^Q~^Q~!Q~!E!Q!~E!QQ^QQ^QQ~Q~~"
};
