/* XPM */
static char *f910f772f0974e00c411e6d0a223a5c5fhpZfY5mytnuFLJt[] = {
/* columns rows colors chars-per-pixel */
"32 32 176 2 ",
"   c None",
".  c #1C1307",
"X  c #26180C",
"o  c #30100E",
"O  c #3C1C11",
"+  c #2A2418",
"@  c #3E201C",
"#  c #221E20",
"$  c #3A2E2D",
"%  c #4C1F18",
"&  c #44241D",
"*  c #4E241E",
"=  c #452314",
"-  c #56241D",
";  c #5C281E",
":  c #493618",
">  c #5C3F19",
",  c #68261C",
"<  c #6A301E",
"1  c #70321F",
"2  c #472723",
"3  c #572C27",
"4  c #4D342D",
"5  c #443C2C",
"6  c #563229",
"7  c #6F2A22",
"8  c #732C22",
"9  c #7A2E22",
"0  c #7D3025",
"q  c #644A1B",
"w  c #634317",
"e  c #72531F",
"r  c #4F4027",
"t  c #4E412C",
"y  c #574222",
"u  c #54452B",
"i  c #5B4728",
"p  c #4B403F",
"a  c #524630",
"s  c #6D4E20",
"d  c #664F28",
"f  c #654B22",
"g  c #724F20",
"h  c #6F5425",
"j  c #7C5A22",
"k  c #745622",
"l  c #4E4542",
"z  c #4C4A43",
"x  c #504341",
"c  c #554E42",
"v  c #585246",
"b  c #575044",
"n  c #5C5951",
"m  c #5F5D5A",
"M  c #5C5555",
"N  c #625F5D",
"B  c #605C54",
"V  c #64625D",
"C  c #6C6C6A",
"Z  c #686866",
"A  c #777878",
"S  c #7C7C7D",
"D  c #727678",
"F  c #843327",
"G  c #8A3326",
"H  c #863627",
"J  c #9E3B2C",
"K  c #933729",
"L  c #A13D2E",
"P  c #A13F30",
"I  c #A93F30",
"U  c #80551D",
"Y  c #845E20",
"T  c #A6462F",
"R  c #A8482F",
"E  c #A54D2D",
"W  c #AA4131",
"Q  c #AA4B33",
"!  c #AF4C3D",
"~  c #A14032",
"^  c #B24535",
"/  c #BD4939",
"(  c #B94736",
")  c #8B6424",
"_  c #836123",
"`  c #936B26",
"'  c #9B6C26",
"]  c #946724",
"[  c #9D7025",
"{  c #A96E2E",
"}  c #B06B2D",
"|  c #AD722B",
" . c #A47527",
".. c #B3752E",
"X. c #BC7234",
"o. c #C54D3B",
"O. c #C84E3C",
"+. c #C9543B",
"@. c #CA593B",
"#. c #C65238",
"$. c #D2593D",
"%. c #D2663D",
"&. c #DA743D",
"*. c #DF7D3E",
"=. c #AB5345",
"-. c #AE5B4E",
";. c #AC5548",
":. c #B45548",
">. c #B5634E",
",. c #B36252",
"<. c #BA6255",
"1. c #BD735F",
"2. c #B76D62",
"3. c #BC7465",
"4. c #B3802B",
"5. c #C68C32",
"6. c #CA8B32",
"7. c #D28C35",
"8. c #CC9232",
"9. c #D29633",
"0. c #DC9336",
"q. c #D99B36",
"w. c #DC9539",
"e. c #DB9C39",
"r. c #D39238",
"t. c #E3843F",
"y. c #E39A3B",
"u. c #E5A43B",
"i. c #E9A63B",
"p. c #EDAA3C",
"a. c #F3A241",
"s. c #F8AA41",
"d. c #F7A941",
"f. c #FFB742",
"g. c #FFB943",
"h. c #C48575",
"j. c #C3867D",
"k. c #7F8182",
"l. c #828383",
"z. c #8A8B8C",
"x. c #87898B",
"c. c #8D8F90",
"v. c #8E9091",
"b. c #929394",
"n. c #9C9D9E",
"m. c #9D9FA0",
"M. c #9FA2A2",
"N. c #A3A5A6",
"B. c #A7ABAE",
"V. c #AAACAE",
"C. c #ACB0B3",
"Z. c #B1B3B5",
"A. c #B4B6B8",
"S. c #B7B9BA",
"D. c #BBBCBD",
"F. c #CE9A93",
"G. c #D1A19A",
"H. c #D9AFA8",
"J. c #DDB8B3",
"K. c #E0C0BB",
"L. c #BDBEC0",
"P. c #BEC1C3",
"I. c #C3C6C7",
"U. c #C4C6C8",
"Y. c #CBCDCF",
"T. c #C7CACC",
"R. c #D0D3D4",
"E. c #E6CBC7",
"W. c #EFE0DE",
"Q. c #DEE0E1",
"!. c #E4E6E9",
"~. c #F2E5E3",
"^. c #F6EFEE",
"/. c #FAF4F3",
"(. c #FCFCFC",
"). c #F3F4F4",
/* pixels */
"                                                                ",
"                                                                ",
"                                                                ",
"                                                                ",
"                      U.x.S S k.k.S l.C.                        ",
"                    Y.v j ` ` ` ` ` ) a M.                      ",
"      b.b n A.      b.k g.g.g.g.g.g.g.4.V         x.c V L.      ",
"    P.u 8.' V       D _ g.g.f.f.f.f.g.5.z P.    Z.u 9.] C       ",
"    B.d g.e.v !.c.p * { g.g.f.f.f.f.g.e.; 4 V I.B.h g.8.n       ",
"    B.d p.q.v l.* T o.t.f.f.f.f.f.f.f.a.#.( 0 p z.h f.8.n       ",
"    B.d f.e.+ @ ^ O.o.0.g.f.f.f.f.f.f.a.+.o.O.0 # s f.8.n       ",
"    V.d f.e.. 0 O.o.o.*.g.f.f.f.f.f.f.a.+.o.o./ o q f.8.n       ",
"    B.d f.e.X ~ O.o.o.t.f.f.g.g.g.g.g.a.O.o.o.O.- q g.8.n       ",
"    B.d a.r.O ^ O.o.o.%.a.d.d.d.d.d.d.*.o.o.O.O.7 q a.6.n       ",
"    C.i &.X.= / o.o.o.o.O.@.@.@.@.@.+.o.o.o.o.O.H > &.} n       ",
"      B e : O I I I I :.<.! I W W I :.<.! W W W F X g y c.      ",
"      Y.b.Z = ~ J J j.~./.E.-.J J 3.~./.E.,.P L G $ c.M.        ",
"          n.- ~ J ;.~.(.N.Q.H.J =.W.S.T.(.J.P L G l             ",
"          A.2 K L -.^.).C I.J.J ;.~.l.m.(.K.P L , N             ",
"            m , L ~ G./.).~.2.J P F.^.(.~.3.L K 2 m.            ",
"            P.p 8 Q Q 3.F.-.E T T Q 1.h.>.E E & S               ",
"              S.t 5.y.y.r.8.9.w.w.r.7.w.w.y.] V                 ",
"                A e i.p.u.8.8.4.5.5.e.p.p.8.u Z.                ",
"                  n Y u.d.p.p.u.u.i.a.p.9.y x.                  ",
"                  Y.V q 5.i.d.d.p.p.y. .5 x.                    ",
"                      b.c f ) ` ' j i V Z.                      ",
"                    Z.n.b.n.2.Z C b.c.c.M.                      ",
"                  v.4 8 ; x S.    2.3 8 - B R.                  ",
"                C.4 #.$.@.H l   k.6 %.$.+.< C                   ",
"                A w ......{ : A.Z k ..| ..' 5 U.                ",
"                D.C V V V V S Q.V.Z Z V V V z.                  ",
"                                                                "
};
