/* XPM */
static char *_ff39c41317342efe30627be3b250c85l5D3Te58UNX8v8Z1[] = {
/* columns rows colors chars-per-pixel */
"32 32 159 2 ",
"   c #512D3C",
".  c #56363F",
"X  c #5E3E3C",
"o  c #6F3D2F",
"O  c #603E39",
"+  c #6B393D",
"@  c #773A36",
"#  c #7B363B",
"$  c #76343B",
"%  c #61403A",
"&  c #744132",
"*  c #7A4735",
"=  c #6F5034",
"-  c #7C5833",
";  c #563540",
":  c #5D3F4C",
">  c #623441",
",  c #603F4B",
"<  c #5F414F",
"1  c #604143",
"2  c #63444D",
"3  c #6C4948",
"4  c #6F524F",
"5  c #7F5347",
"6  c #604351",
"7  c #644953",
"8  c #764650",
"9  c #6C5457",
"0  c #6D545A",
"q  c #70585C",
"w  c #745C61",
"e  c #735969",
"r  c #78616D",
"t  c #796366",
"y  c #9D3D3D",
"u  c #864C2F",
"i  c #8B4136",
"p  c #905D36",
"a  c #985827",
"s  c #A75E23",
"d  c #BC473D",
"f  c #B3423E",
"g  c #86692D",
"h  c #856932",
"j  c #8D723D",
"k  c #927232",
"l  c #BE6B20",
"z  c #B56621",
"x  c #DD7D18",
"c  c #DC7C17",
"v  c #E07F17",
"b  c #C0463D",
"n  c #CC493E",
"m  c #D64B3F",
"M  c #8F575B",
"N  c #80665A",
"B  c #88705F",
"V  c #866F7B",
"C  c #986C71",
"Z  c #867577",
"A  c #89797A",
"S  c #CD4A40",
"D  c #9C812C",
"F  c #A78C2E",
"G  c #B28927",
"H  c #AE952E",
"J  c #B49C2B",
"K  c #A48A30",
"L  c #AB9338",
"P  c #BAA22A",
"I  c #E68215",
"U  c #E98314",
"Y  c #CC8B20",
"T  c #C6AF28",
"R  c #C3AC27",
"E  c #CEB927",
"W  c #C7B028",
"Q  c #C8B128",
"!  c #D5BF25",
"~  c #D6C126",
"^  c #D9C426",
"/  c #D6C12A",
"(  c #D9CA3F",
")  c #978048",
"_  c #A18F7D",
"`  c #B4A878",
"'  c #C7B954",
"]  c #C6BE7A",
"[  c #C5BA66",
"{  c #DBCF54",
"}  c #DDD158",
"|  c #D7C94B",
" . c #DAD57A",
".. c #8F7B85",
"X. c #917D88",
"o. c #968984",
"O. c #95818C",
"+. c #948685",
"@. c #A2978B",
"#. c #A99796",
"$. c #A59D96",
"%. c #A4959C",
"&. c #B19D9C",
"*. c #B5AC88",
"=. c #ACA69E",
"-. c #B6B099",
";. c #A798A2",
":. c #AD9EA6",
">. c #AFA2A9",
",. c #B3A5AD",
"<. c #B2A8A8",
"1. c #B9AEAA",
"2. c #BDBBAE",
"3. c #BAAFB5",
"4. c #BEB4B9",
"5. c #BEB2B4",
"6. c #C1B7BD",
"7. c #C2B8BC",
"8. c #CECD9B",
"9. c #CCCA95",
"0. c #E3E59F",
"q. c #CECFA2",
"w. c #CBCCAB",
"e. c #CED0AA",
"r. c #CCCFBE",
"t. c #CCD0BE",
"y. c #D7DBB0",
"u. c #DCE1AD",
"i. c #DFE7BC",
"p. c #E6EEBF",
"a. c #E6EDB6",
"s. c #C6BEC2",
"d. c #C8BFC5",
"f. c #CAC1C5",
"g. c #CDC4C9",
"h. c #D0CCC7",
"j. c #D0C7CD",
"k. c #D7DCC9",
"l. c #DADECF",
"z. c #D4CCD0",
"x. c #D7D1D4",
"c. c #D9D3D6",
"v. c #DEDADC",
"b. c #E1DCDE",
"n. c #DAE2CA",
"m. c #DEE8D0",
"M. c #E7F0C3",
"N. c #E9F3C5",
"B. c #E1EAD4",
"V. c #EDFCDE",
"C. c #E6F4D8",
"Z. c #E2DEE0",
"A. c #E7E4E6",
"S. c #EDECED",
"D. c #F0EEEF",
"F. c #F5F5F5",
"G. c #F7F8F7",
"H. c #F7F8F8",
"J. c #FAFAFA",
/* pixels */
"J.G.F.J.F.F.J.D.J.J.F.J.F.F.J.F.F.J.F.J.J.D.J.F.F.J.F.F.J.F.F.J.",
"G.H.F.F.H.F.F.J.F.F.F.F.H.H.F.J.H.F.H.F.F.J.F.H.J.F.J.H.F.H.F.F.",
"F.G.G.F.H.H.G.H.F.F.J.F.H.J.F.F.F.F.J.F.F.J.F.H.J.F.H.F.F.J.F.F.",
"J.G.F.H.F.F.J.F.J.F.F.J.F.F.J.F.F.J.F.J.H.F.J.F.F.J.F.F.J.F.J.J.",
"F.F.H.F.J.F.F.J.F.F.J.F.H.J.F.J.F.F.J.F.F.J.G.F.J.F.J.F.F.J.F.F.",
"F.J.F.F.F.H.F.H.H.F.J.F.H.F.F.H.H.F.H.F.F.J.F.H.F.F.J.F.F.F.H.F.",
"J.F.F.J.F.F.J.F.H.F.F.J.F.F.J.F.F.J.F.J.J.F.J.F.F.J.G.F.J.F.J.J.",
"D.J.J.F.J.F.F.J.F.F.J.F.J.J.F.J.J.F.J.H.F.J.F.F.J.F.J.H.D.J.F.F.",
"J.F.F.J.F.F.H.F.H.H.F.J.D.1.:.:.:.:.:.:.c.F.H.F.F.H.F.J.J.F.F.J.",
"J.F.F.J.F.F.H.F.H.H.Z.z.7.w 9 9 2   0 0 %.v.H.G.F.J.F.F.J.F.J.F.",
"F.F.J.F.J.H.F.J.F.D.%., q q.u.y.@.w n.C.o.O.A.F.J.F.F.F.F.J.F.F.",
"J.F.F.J.F.H.J.D.F.X.o.w.9.| | ) A k.V.V.B.$.V S.F.J.F.F.J.F.F.J.",
"F.F.F.F.J.F.H.S.X.@. .{ { E / g r l.V.V.=.o.=...Z.H.F.J.F.F.F.F.",
"F.J.H.F.J.J.Z.#.N [ ( ! ! ! / h e h.V.V.Z A t.2 c.F.J.F.F.J.F.F.",
"J.F.F.J.F.J.j.O Q ! ! ! ! ! ! D N <.B.V.$.$.r.6 c.J.F.F.J.F.J.J.",
"F.H.H.F.F.J.d.O P W Q W Q ! ! ! F 4 1.k.n.n.2.6 f.D.J.F.F.J.F.F.",
"F.F.H.F.G.H.s.. O % % % = W ~ ~ E H 2 2 2 7 ,   , 6.F.J.F.F.F.F.",
"J.F.G.H.F.4.B L *.-.-.` K - P ^ J - d b b b b b b M >.F.J.F.J.J.",
"F.H.H.F.J.;.3  .a.M.N.8.k a Y G p y y y y y y y y C d.J.D.J.F.F.",
"J.F.G.H.H.;.0 a.p.0.9._ u x U s y y y # # $ $ $   3.J.F.J.F.J.F.",
"J.H.F.J.F.,.t w.e.' g & x I I I s @ n S m m n S 8 7.J.F.J.F.J.J.",
"D.H.H.F.J.F.5.7 < < . * x x I x c l + X > > + 8 f.S.J.J.D.J.F.D.",
"J.F.F.J.G.H.D.s.g.g.r.#.& o & o o 5 5.g.g.s.j.g.S.J.F.F.H.F.J.J.",
"H.F.H.F.H.F.F.J.H.H.J.v.;.%.%.;.%.>.D.J.H.J.H.H.J.F.F.J.F.J.F.F.",
"F.H.J.F.J.F.F.J.F.F.J.F.J.J.J.J.H.J.J.F.F.J.F.F.H.F.J.F.F.J.F.F.",
"J.F.F.J.F.F.J.D.J.J.F.J.F.F.J.D.F.J.F.J.J.F.J.F.F.J.F.F.J.F.J.J.",
"F.H.J.F.J.H.G.J.F.F.J.F.J.J.F.J.J.F.J.F.F.J.F.G.J.F.J.F.F.J.F.F.",
"F.H.F.F.H.F.F.H.F.F.F.G.F.J.F.F.F.F.H.F.F.F.F.G.F.F.F.J.F.J.F.F.",
"J.F.F.J.F.F.J.F.J.J.D.J.F.F.J.F.F.J.D.H.J.D.J.G.F.J.F.F.J.F.J.J.",
"F.F.J.F.J.F.F.J.F.F.J.F.F.J.F.J.J.F.J.F.F.J.F.G.J.D.J.F.D.J.G.D.",
"H.F.F.J.F.F.H.F.F.F.F.J.F.F.J.F.F.F.F.J.G.F.J.F.F.J.F.J.F.F.F.J.",
"J.F.F.J.F.F.J.F.J.J.F.J.F.F.J.F.F.J.F.J.J.D.J.J.F.J.F.F.J.F.J.H."
};
