/* XPM */
static char *_bfb874262414c75904170e33d5c565blN8YPAybP7nlkqOf[] = {
/* columns rows colors chars-per-pixel */
"32 32 9 1 ",
"  c #4C78B5",
". c #4D79B6",
"X c #4E7AB7",
"o c #4F7BB8",
"O c #507CB9",
"+ c #517DBA",
"@ c #527EBB",
"# c #537FBC",
"$ c #5480BD",
/* pixels */
"@@@@@@@@@@@@@@@@@@@@@@@@@@@@@@XX",
"@@@@@@@@@@@@@@@@@@@@@@@@@@@@@X@X",
"@@@@@@@@@@@@@@@@@@@@@@@@@@@@@oo@",
"@@@@@@@@@@@@@@@@@@@@@@@@@@@oXo@@",
"@@@@@@@@@@@@@@@@@@@@@@@@@@ooo@@@",
"@@@@@@@@@@@@@@@@@@@@@@@@o@oX@##@",
"@@@@@@@@@@@@@@@@@o@@@@ooXoo@@##@",
"@@@@@@@@@@@@@@@@@@@oo@@@Xo@#@@@#",
"@@@@@@@@@@@@@@@@@@@@@@X @@@@@@@@",
"@@@@@@@@@@@@@@@@@@@@o@XX@@@@@@@@",
"@@@@@@@@@@@@@@@@o@@@Xo@@@@@@@@@@",
"@@@@@@@@@@@@@@@@@@@oX@@$@@@@@@@@",
"@@@@@@@@@@@@@@@@@@XX@@@#@@@@@@@@",
"@@@@@@@@@@@@@@@@ooX@@##@@@@@@@@@",
"@@@@@@@@@@@@@@@@Xoo@@#@@@@@@@@@@",
"@@@@@@@@@@@@@@@@X@@@@@@@@@@@@@@@",
"@@@@@@@@@@oo@@X @@@@@@@@@@@@@@@@",
"@@@@@@@@@@@@@@oX@@@@@@@@@@@@@@@@",
"@@@@@@@@@@@@oXo@@@@@@@@@@@@@@@@@",
"@@@@@@@@@@@oX@@@@@@@@@@@@@@@@@@@",
"@@@@@@@@@@XX@@@@@@@@@@@@@@@@@@@@",
"@@@@@@@@@oXo@$@@@@@@@@@@@@@@@@@@",
"@@@@@@@@XX@@###@@@@@@@@@@@@@@@@@",
"@@@@@@@@XX@@#@#@@@@@@@@@@@@@@@@@",
"@@o@@@XX@@@@@@@@@@@@@@@@@@@@@@@@",
"@@@@oo@o@@@@@@@@@@@@@@@@@@@@@@@@",
"@@@@ooo@@@@@@@@@@@@@@@@@@@@@@@@@",
"@@@XoX@@@@@@@@@@@@@@@@@@@@@@@@@@",
"@@oX@@@@@@@@@@@@@@@@@@@@@@@@@@@@",
"o@oo@@#@@@@@@@@@@@@@@@@@@@@@@@@@",
"XX@@###@@@@@@@@@@@@@@@@@@@@@@@@@",
"Xo@$#@@#@@@@@@@@@@@@@@@@@@@@@@@@"
};
