/* XPM */
static char *_82ee8f706304b07f6c756697bcbbc200oG3ouj8NRryAyYH[] = {
/* columns rows colors chars-per-pixel */
"32 32 199 2 ",
"   c None",
".  c #894E20",
"X  c #8B5020",
"o  c #8D5221",
"O  c #8C5123",
"+  c #925623",
"@  c #925723",
"#  c #915625",
"$  c #955923",
"%  c #975C23",
"&  c #935827",
"*  c #955925",
"=  c #955927",
"-  c #965A27",
";  c #995C25",
":  c #9A5D25",
">  c #995D26",
",  c #9D5F26",
"<  c #975B28",
"1  c #965B2A",
"2  c #965C2C",
"3  c #995C29",
"4  c #8F5E3E",
"5  c #935D34",
"6  c #9D6024",
"7  c #9D6026",
"8  c #9E6126",
"9  c #9E612A",
"0  c #A16326",
"q  c #A06424",
"w  c #A26425",
"e  c #A26624",
"r  c #A36624",
"t  c #A36625",
"y  c #A26426",
"u  c #A46625",
"i  c #A56625",
"p  c #A56825",
"a  c #A76A26",
"s  c #A96925",
"d  c #A96A24",
"f  c #A1642A",
"g  c #A2652A",
"h  c #A4662B",
"j  c #A5672B",
"k  c #A6672B",
"l  c #A2642C",
"z  c #A5672C",
"x  c #A7692D",
"c  c #AA6B2E",
"v  c #AA6C2E",
"b  c #AB6C2E",
"n  c #AA6C2F",
"m  c #B07126",
"M  c #B37226",
"N  c #B47427",
"B  c #B77527",
"V  c #B77627",
"C  c #BA7827",
"Z  c #B07228",
"A  c #B27428",
"S  c #B37529",
"D  c #B57729",
"F  c #B67729",
"G  c #B1712F",
"H  c #B97828",
"J  c #B87929",
"K  c #BD7B28",
"L  c #BF7C28",
"P  c #BF7D28",
"I  c #A56E3D",
"U  c #A66F3D",
"Y  c #A86F39",
"T  c #A96F3A",
"R  c #AF7030",
"E  c #AC733C",
"W  c #B17231",
"Q  c #B27330",
"!  c #B47431",
"~  c #B57531",
"^  c #B57631",
"/  c #B57532",
"(  c #B67632",
")  c #B87833",
"_  c #B97933",
"`  c #BA7934",
"'  c #B1753A",
"]  c #B3783D",
"[  c #B67B3E",
"{  c #B67B3F",
"}  c #B77C3F",
"|  c #B97D3D",
" . c #B87D3E",
".. c #B97D3E",
"X. c #C17E28",
"o. c #9D745C",
"O. c #9E765D",
"+. c #A26D40",
"@. c #A16E44",
"#. c #B47A40",
"$. c #A5795A",
"%. c #A67A5A",
"&. c #A77A5A",
"*. c #A87C5C",
"=. c #A07961",
"-. c #A37E67",
";. c #A57F69",
":. c #BF803B",
">. c #BF813B",
",. c #BF813C",
"<. c #C68229",
"1. c #C78329",
"2. c #C9862B",
"3. c #C9872B",
"4. c #CD892C",
"5. c #CE8A2C",
"6. c #D38F2C",
"7. c #D48F2C",
"8. c #D5902D",
"9. c #D6902C",
"0. c #D6902D",
"q. c #D6912D",
"w. c #DA942D",
"e. c #DB942D",
"r. c #DC952D",
"t. c #DC962D",
"y. c #CC893A",
"u. c #D5913B",
"i. c #D4913D",
"p. c #D5913D",
"a. c #D5923D",
"s. c #D6923C",
"d. c #D6923D",
"f. c #D7933D",
"g. c #D7933E",
"h. c #D8943D",
"j. c #D9953E",
"k. c #DA963F",
"l. c #DB963F",
"z. c #DB973F",
"x. c #DC973F",
"c. c #A6816B",
"v. c #A6826D",
"b. c #A8846E",
"n. c #A8846F",
"m. c #A68675",
"M. c #A88772",
"N. c #A98773",
"B. c #A98874",
"V. c #AB8977",
"C. c #DD9940",
"Z. c #DE9940",
"A. c #DE9A40",
"S. c #DF9A40",
"D. c #E59F40",
"F. c #EAA241",
"G. c #EAA342",
"H. c #EBA442",
"J. c #ECA543",
"K. c #EAA444",
"L. c #EBA544",
"P. c #EBA545",
"I. c #ECA644",
"U. c #F5AD47",
"Y. c #F6AE47",
"T. c #F5AE48",
"R. c #F6AE48",
"E. c #F6AF48",
"W. c #F7AF48",
"Q. c #F9B149",
"!. c #FAB249",
"~. c #FBB349",
"^. c #FBB24A",
"/. c #FBB34A",
"(. c #FCB349",
"). c #FCB34A",
"_. c #FCB44A",
"`. c #FDB44A",
"'. c #FDB54A",
"]. c #AE9282",
"[. c #B39889",
"{. c #B49D93",
"}. c #B59E94",
"|. c #BAA69E",
" X c #BAA69F",
".X c #BAA79F",
"XX c #BBA9A2",
"oX c #BDAAA1",
"OX c #BCA9A2",
"+X c #BDAAA2",
"@X c #BEACA4",
"#X c #BEADA7",
"$X c #BEAEA8",
"%X c #BEAEA9",
"&X c #BFAFA9",
"*X c #C1AFA8",
"=X c #C0AFA9",
"-X c #C1B2AC",
";X c #C2B2AC",
/* pixels */
"                                                                ",
"                                                                ",
"                                                                ",
"                                                                ",
"                                                                ",
"        @X{.}.}.}.}.}.}.}.}.}.{.}.}.}.}.}.}.}.}.}.}.{.XX        ",
"        @.:.,.,.,.,.,.,.,.,.,.,.,.,.,.,.,.,.,.,.,.,.y.+.*X      ",
"      @X#.(././././././././././././././././././././._.|  X      ",
"      %X#././././././.W././././././././././././././._.}  X      ",
"      &XE J.G.K.G.K.K.K.K.G.G.G.K.K.G.H.H.H.H.I.K.G.J.' .X      ",
"        c.5 z b l = v c v 1 + 0 6 0 0 0 6 f > = c v 1 O.        ",
"          %.D.R.h.R R.U.R.h.> X.0.6.6.6.9.9.C G R.U.] &X        ",
"          %.G.(.C.3 J.(././.C.> p D A A A A q ! /./.[ XX        ",
"          %.G./.C.. z J./.W._.h.= C 4.4.5.5.N ! /./.[ XX        ",
"          %.G./.C.i V z K./././.C.6 <.t.e.t.X.! /./.[ XX        ",
"          %.G.(.C.6 3.p 9 K./.R.).h., K 2.2.m ! /.W.} +X        ",
"          &.G./.x.= F F i k J./././.C.O r J r ! /./.[ XX        ",
"          %.G./.x.r e.e.w.N z J./.W./.C.9 <.P ! /./.[ +X        ",
"          &.G./.A.r 0.0.7.0.m f K./././.C.6 s ! /.W.[ XX        ",
"          %.G.(.C.@ Z Z Z Z Z % 9 G././._.C.X W /./.[ +X        ",
"          *.H._.C.r 0.6.6.6.6.7.N k H././._.y.! _._.#.*X        ",
"        [.4 G _ v o s s s s s s s X 1 _ _ _ x 1 ` ` 2 m.        ",
"      ;XI u.i.i.i.d.d.d.d.i.d.d.d.d.d.i.d.i.d.i.u.d.d.Y +X      ",
"      %X#./././././././././././.(./././././././././._.|  X      ",
"      %X#.(././.(././././././././././.(./././._././._.| XX      ",
"      ;XI h.h.d.g.u.d.h.h.d.h.d.d.h.d.g.d.h.d.d.g.d.h.Y +X      ",
"        B.;.b.N.N.N.c.c.N.N.N.N.B.N.N.B.B.b.b.=.O.O.-.].        ",
"                                                                ",
"                                                                ",
"                                                                ",
"                                                                ",
"                                                                "
};
